<?xml version="1.0" encoding="UTF-8"?> <svg xmlns="http://www.w3.org/2000/svg" viewBox="0 0 136 25"><path d="M35.955 7.147c.863 0 1.724.093 2.567.277.822.172 1.623.43 2.39.771v.612a5.871 5.871 0 01-.21 1.61 4.244 4.244 0 01-.712 1.36 9.117 9.117 0 00-4.194-1.082c-.58-.05-1.163.07-1.677.343a1.107 1.107 0 00-.478.965c-.006.283.083.56.251.788.23.275.517.498.839.655.56.272 1.137.507 1.728.704a14.73 14.73 0 013.044 1.376 4.495 4.495 0 011.585 1.627c.366.719.55 1.516.537 2.323a4.697 4.697 0 01-1.61 3.8c-1.074.905-2.768 1.366-5.083 1.366a11.34 11.34 0 01-2.96-.427 10.27 10.27 0 01-2.634-1.066 5.208 5.208 0 01-.092-.922 3.665 3.665 0 01.948-2.516c.728.45 1.511.802 2.331 1.048a7.875 7.875 0 002.298.386 4.361 4.361 0 001.862-.302c.411-.221.65-.668.604-1.132a1.359 1.359 0 00-.604-1.116 8.337 8.337 0 00-2.155-.964 13.562 13.562 0 01-3.053-1.359 4.672 4.672 0 01-1.678-1.677 5.032 5.032 0 01-.511-2.332 4.378 4.378 0 011.795-3.833 8.387 8.387 0 014.872-1.283zm66.695 1.845a7.263 7.263 0 011.727 5.192 15.75 15.75 0 01-.285 2.885H93.92a4.529 4.529 0 001.224 3.036 4.194 4.194 0 003.062 1.048 6.92 6.92 0 002.516-.461 9.997 9.997 0 002.256-1.216c.372.24.667.584.847.99a3.086 3.086 0 01.184 2.214 9.469 9.469 0 01-2.818 1.417 12.128 12.128 0 01-3.598.487 8.236 8.236 0 01-4.143-1.007 6.81 6.81 0 01-2.743-2.96 10.5 10.5 0 01-.964-4.714c-.036-1.59.291-3.168.956-4.613a7.02 7.02 0 012.76-3.053A8.135 8.135 0 0197.7 7.164a6.517 6.517 0 014.949 1.828zm17.621 0a7.263 7.263 0 011.728 5.192 15.751 15.751 0 01-.285 2.885H111.54a4.529 4.529 0 001.225 3.036 4.194 4.194 0 003.06 1.048 6.92 6.92 0 002.517-.461 9.997 9.997 0 002.256-1.216c.373.24.667.584.847.99.211.427.32.898.319 1.375-.006.284-.05.567-.134.839a9.528 9.528 0 01-2.81 1.417 12.22 12.22 0 01-3.606.487 8.261 8.261 0 01-4.144-1.007 6.81 6.81 0 01-2.742-2.96 10.5 10.5 0 01-.965-4.714c-.036-1.59.291-3.168.956-4.613a7.02 7.02 0 012.76-3.053 8.16 8.16 0 014.244-1.073 6.5 6.5 0 014.948 1.828zM48.276.186a1.2 1.2 0 01.654.612c.105.271.165.557.176.847v7.02a5.292 5.292 0 011.946-1.107 7.859 7.859 0 012.516-.394 5.468 5.468 0 014.236 1.484c.934.99 1.4 2.527 1.4 4.613v10.71a4.906 4.906 0 01-2.18.37 5.485 5.485 0 01-2.29-.37V13.487a2.449 2.449 0 00-.629-1.861 2.843 2.843 0 00-1.996-.588 5.552 5.552 0 00-3.003.84V23.92a4.865 4.865 0 01-2.172.37 5.535 5.535 0 01-2.29-.37V.437A5.393 5.393 0 0146.902.01c.465-.034.933.026 1.375.177zm84.03-.177c.914-.006 1.825.107 2.71.336.165.517.242 1.059.226 1.602a4.194 4.194 0 01-.319 1.82 6.928 6.928 0 00-1.996-.294 1.92 1.92 0 00-1.669.654 2.927 2.927 0 00-.486 1.795v1.619h3.807a3.95 3.95 0 01.286 1.677 4.32 4.32 0 01-.286 1.745h-3.807v13.008a4.755 4.755 0 01-2.13.37 5.552 5.552 0 01-2.257-.37V10.988h-2.24a4.303 4.303 0 01-.293-1.744 3.934 3.934 0 01.294-1.678h2.24v-1.51a6.55 6.55 0 011.417-4.461c.945-1.052 2.446-1.58 4.503-1.586zM18.041 7.18c.232.337.397.716.486 1.116.12.474.18.962.176 1.45a6.131 6.131 0 01-.36 2.131h-.898a8.27 8.27 0 00-3.933.89V23.97a4.932 4.932 0 01-2.181.37 5.594 5.594 0 01-2.29-.37V8.036a3.657 3.657 0 012.097-.612 2.172 2.172 0 011.594.486c.38.495.584 1.103.578 1.728.346-.825.973-1.5 1.77-1.904a5.569 5.569 0 012.96-.554zm7.011.462c.291.113.526.336.654.62.123.325.186.668.185 1.015v14.694a5.032 5.032 0 01-2.172.37 5.485 5.485 0 01-2.307-.37h.025V7.927a4.311 4.311 0 011.936-.52h.253c.487-.017.971.063 1.426.235zM4.605 2.299v21.672a5.804 5.804 0 01-2.299.37A6.114 6.114 0 010 23.97V2.3c.737-.274 1.52-.4 2.306-.369a5.661 5.661 0 012.299.37zm78.964.923a4.714 4.714 0 012.592 4.512 5.25 5.25 0 01-.89 3.153 5.225 5.225 0 01-2.851 1.88c3.215.374 4.823 2.082 4.823 5.124a5.3 5.3 0 01-1.46 4.009 7.548 7.548 0 01-3.698 1.87 25.715 25.715 0 01-5.184.47 40.66 40.66 0 01-6.223-.453V5.847a30.2 30.2 0 00-2.189.402 4.395 4.395 0 01-.352-1.778 3.355 3.355 0 01.528-1.887 38.446 38.446 0 017.884-.721 15.18 15.18 0 017.02 1.359zm-5.737 11.54h-2.516v5.754c.855.127 1.719.192 2.583.193a7.171 7.171 0 003.506-.638 2.6 2.6 0 001.191-2.457 2.6 2.6 0 00-.511-1.812 2.81 2.81 0 00-1.569-.838 14.258 14.258 0 00-2.684-.202zm37.365-4.26a3.581 3.581 0 00-2.55.905 3.892 3.892 0 00-1.107 2.642h6.525a3.858 3.858 0 00-.629-2.642 2.659 2.659 0 00-2.24-.905zm-17.622 0a3.581 3.581 0 00-2.55.905 3.892 3.892 0 00-1.106 2.642h6.525a3.95 3.95 0 00-.63-2.642 2.659 2.659 0 00-2.239-.905zM76.29 5.386l-1.032.041v5.871h1.795a9.31 9.31 0 002.65-.301 2.634 2.634 0 001.435-.948 3.036 3.036 0 00.453-1.753 2.298 2.298 0 00-1.267-2.24 9.092 9.092 0 00-4.034-.67zM23.635.286c.468-.01.93.103 1.342.327.384.21.701.524.914.906.216.387.326.824.319 1.267.008.445-.102.885-.319 1.274-.213.383-.53.697-.914.906a2.692 2.692 0 01-1.342.327 2.81 2.81 0 01-1.359-.327 2.265 2.265 0 01-.914-.906 2.516 2.516 0 01-.327-1.274 2.51 2.51 0 01.327-1.267c.21-.384.528-.699.914-.906a2.81 2.81 0 011.359-.327z" fill="#004B4E"></path></svg> 