<?xml version="1.0" encoding="utf-8"?>
<!-- Generator: Adobe Illustrator 23.0.4, SVG Export Plug-In . SVG Version: 6.00 Build 0)  -->
<svg version="1.1" id="Layer_1" xmlns="http://www.w3.org/2000/svg" xmlns:xlink="http://www.w3.org/1999/xlink" x="0px" y="0px"
	 viewBox="0 0 13 13" style="enable-background:new 0 0 13 13;" xml:space="preserve">
<style type="text/css">
	.st0{fill:#FFFFFF;}
</style>
<title>LinkedIn</title>
<desc>Created with Sketch.</desc>
<g>
	<g transform="translate(-272.000000, -6260.000000)">
		<g id="Social-Media-Panel" transform="translate(140.000000, 6079.000000)">
			<g id="Social-Media-Icons" transform="translate(0.000000, 180.000000)">
				<path id="LinkedIn" class="st0" d="M134.9,5.3V14h-2.7V5.3H134.9z M141.8,5.1c2.7,0,3.2,1.8,3.2,4.1V14h-2.7V9.8
					c0-1,0-2.3-1.4-2.3c-1.4,0-1.6,1.1-1.6,2.2V14h-2.7V5.3h2.6v1.2h0C139.6,5.8,140.5,5.1,141.8,5.1z M133.6,1
					c0.9,0,1.6,0.7,1.6,1.6c0,0.9-0.7,1.6-1.6,1.6c-0.9,0-1.6-0.7-1.6-1.6C132,1.7,132.7,1,133.6,1z"/>
			</g>
		</g>
	</g>
</g>
</svg>
