<?xml version="1.0" encoding="utf-8"?>
<!-- Generator: Adobe Illustrator 23.0.4, SVG Export Plug-In . SVG Version: 6.00 Build 0)  -->
<svg version="1.1" id="Layer_1" xmlns="http://www.w3.org/2000/svg" xmlns:xlink="http://www.w3.org/1999/xlink" x="0px" y="0px"
	 viewBox="0 0 15 13" style="enable-background:new 0 0 15 13;" xml:space="preserve">
<style type="text/css">
	.st0{fill:#FFFFFF;}
</style>
<title>Twitter</title>
<desc>Created with Sketch.</desc>
<g>
	<g transform="translate(-185.000000, -6260.000000)">
		<g id="Social-Media-Panel" transform="translate(140.000000, 6079.000000)">
			<g id="Social-Media-Icons" transform="translate(0.000000, 180.000000)">
				<path id="Twitter" class="st0" d="M60,2.5c-0.6,0.3-1.1,0.4-1.8,0.5c0.6-0.4,1.1-1,1.4-1.8c-0.6,0.4-1.3,0.6-2,0.8
					c-0.6-0.6-1.4-1-2.2-1c-1.7,0-3.1,1.4-3.1,3.2c0,0.3,0,0.5,0.1,0.7c-2.6-0.1-4.8-1.4-6.3-3.4c-0.3,0.5-0.4,1-0.4,1.6
					c0,1.1,0.5,2.1,1.4,2.7c-0.5,0-1-0.2-1.4-0.4c0,0,0,0,0,0c0,1.6,1.1,2.9,2.5,3.2c-0.3,0.1-0.5,0.1-0.8,0.1c-0.2,0-0.4,0-0.6-0.1
					c0.4,1.3,1.5,2.2,2.9,2.2c-1.1,0.9-2.4,1.4-3.8,1.4c-0.2,0-0.5,0-0.7,0c1.4,0.9,3,1.5,4.7,1.5c5.7,0,8.8-4.9,8.8-9.2
					c0-0.1,0-0.3,0-0.4C59.1,3.7,59.6,3.2,60,2.5"/>
			</g>
		</g>
	</g>
</g>
</svg>
