<?xml version="1.0" encoding="UTF-8"?>
<svg width="19px" height="13px" viewBox="0 0 19 13" version="1.1" xmlns="http://www.w3.org/2000/svg" xmlns:xlink="http://www.w3.org/1999/xlink">
    <!-- Generator: Sketch 59 (86127) - https://sketch.com -->
    <title>YouTube</title>
    <desc>Created with Sketch.</desc>
    <g id="UI_Food-&amp;-Living" stroke="none" stroke-width="1" fill="none" fill-rule="evenodd">
        <g id="Food-&amp;-Living_Desktop" transform="translate(-317.000000, -6260.000000)" fill="#909090" fill-rule="nonzero">
            <g id="Social-Media-Panel" transform="translate(140.000000, 6079.000000)">
                <g id="Social-Media-Icons" transform="translate(0.000000, 180.000000)">
                    <path d="M184.634211,4.7307104 C184.634211,6.59217755 184.634211,8.40748442 184.634211,10.269117 C186.282591,9.34111335 187.899886,8.43031639 189.55401,7.49900374 C187.890932,6.56322397 186.277354,5.65523964 184.634211,4.7307104 Z M189.633582,1 C189.711972,1.10985816 189.828881,1.0509583 189.925516,1.05509453 C191.039529,1.10406745 192.153541,1.14278252 193.261978,1.27762349 C194.75814,1.45978288 195.517034,2.16161771 195.741222,3.62253273 C196.033494,5.52784388 196.043968,7.44407466 195.940068,9.36344897 C195.899184,10.1221983 195.835154,10.8779695 195.692228,11.6262955 C195.459255,12.8463167 194.681947,13.5648619 193.42163,13.7116152 C191.347006,13.9530053 189.2614,13.9713702 187.176639,13.9946985 C185.042378,14.0185232 182.909469,13.962105 180.779431,13.824286 C180.295915,13.7930161 179.813582,13.7435469 179.335979,13.6571825 C178.298498,13.4697287 177.579814,12.7928767 177.353598,11.7831412 C177.174181,10.9826987 177.126539,10.167035 177.060651,9.35319113 C177.053724,9.26748853 177.109306,9.1607739 177,9.09608332 C177,8.03174965 177,6.96758142 177,5.90324775 C177.109813,5.83888807 177.053555,5.73217344 177.060651,5.64680174 C177.119274,4.92842201 177.170295,4.20971138 177.293792,3.49794961 C177.524738,2.16707753 178.29664,1.44919414 179.664574,1.27878163 C180.752062,1.14311342 181.845802,1.11051996 182.938527,1.05691447 C183.034994,1.05211645 183.15224,1.11184355 183.229447,1 C185.364215,1 187.498814,1 189.633582,1 L189.633582,1 Z" id="YouTube"></path>
                </g>
            </g>
        </g>
    </g>
</svg>